<mxfile host="app.diagrams.net" modified="2021-01-10T09:23:27.676Z" agent="5.0 (Macintosh; Intel Mac OS X 10_14_6) AppleWebKit/537.36 (KHTML, like Gecko) Chrome/87.0.4280.88 Safari/537.36" etag="eGcJyBEBEbiIUAliASv5" version="14.1.9" type="github">
  <diagram name="Page-1" id="d9b1e647-80fa-b4a2-5024-87a742678bcc">
    <mxGraphModel dx="1186" dy="773" grid="1" gridSize="10" guides="1" tooltips="1" connect="1" arrows="1" fold="1" page="1" pageScale="1" pageWidth="1100" pageHeight="850" background="#ffffff" math="0" shadow="0">
      <root>
        <mxCell id="0" />
        <mxCell id="1" parent="0" />
        <mxCell id="57fe6abec08f04cb-1" value="&amp;nbsp; 项目管理" style="shape=step;whiteSpace=wrap;html=1;fontSize=28;fillColor=#0080FF;fontColor=#FFFFFF;strokeColor=none;align=center;size=0.10526315789473684;" parent="1" vertex="1">
          <mxGeometry x="120" y="180" width="190" height="80" as="geometry" />
        </mxCell>
        <mxCell id="57fe6abec08f04cb-3" value="May" style="shape=step;whiteSpace=wrap;html=1;fontSize=28;fillColor=#0067CC;fontColor=#FFFFFF;strokeColor=none;size=0.11764705882352941;" parent="1" vertex="1">
          <mxGeometry x="600" y="180" width="170" height="80" as="geometry" />
        </mxCell>
        <mxCell id="57fe6abec08f04cb-4" value="July" style="shape=step;whiteSpace=wrap;html=1;fontSize=28;fillColor=#0062C4;fontColor=#FFFFFF;strokeColor=none;size=0.11764705882352941;" parent="1" vertex="1">
          <mxGeometry x="770" y="180" width="170" height="80" as="geometry" />
        </mxCell>
        <mxCell id="57fe6abec08f04cb-7" value="2017" style="text;html=1;strokeColor=none;fillColor=#61BAFF;align=center;verticalAlign=middle;whiteSpace=wrap;fontSize=54;fontStyle=1;fontColor=#004D99;" parent="1" vertex="1">
          <mxGeometry x="120" y="110" width="860" height="60" as="geometry" />
        </mxCell>
        <mxCell id="NXsfvVfhCRuZot-71Uk9-2" value="" style="shape=link;html=1;" edge="1" parent="1">
          <mxGeometry width="100" relative="1" as="geometry">
            <mxPoint x="500" y="380" as="sourcePoint" />
            <mxPoint x="600" y="380" as="targetPoint" />
          </mxGeometry>
        </mxCell>
        <mxCell id="57fe6abec08f04cb-2" value="&lt;span&gt;&amp;nbsp;持续集成与持续测试&lt;/span&gt;" style="shape=step;whiteSpace=wrap;html=1;fontSize=28;fillColor=#0075E8;fontColor=#FFFFFF;strokeColor=none;size=0.06666666666666667;" parent="1" vertex="1">
          <mxGeometry x="310" y="180" width="300" height="80" as="geometry" />
        </mxCell>
      </root>
    </mxGraphModel>
  </diagram>
</mxfile>
